<svg xmlns="http://www.w3.org/2000/svg" viewBox="0 0 1400 800" role="img" aria-labelledby="title desc">
  <title id="title">Editorial illustration of a family-friendly café</title>
  <desc id="desc">A warm café with coffee cups, pastries, buggies by the wall and relaxed seating for parents and children.</desc>
  <defs>
    <linearGradient id="sky" x1="0" y1="0" x2="0" y2="1">
      <stop offset="0%" stop-color="#f6ead6"/>
      <stop offset="100%" stop-color="#efc99d"/>
    </linearGradient>
    <linearGradient id="counter" x1="0" y1="0" x2="0" y2="1">
      <stop offset="0%" stop-color="#f2e6d6"/>
      <stop offset="100%" stop-color="#cfb08b"/>
    </linearGradient>
    <linearGradient id="floor" x1="0" y1="0" x2="0" y2="1">
      <stop offset="0%" stop-color="#ddd2c7"/>
      <stop offset="100%" stop-color="#a9a29c"/>
    </linearGradient>
  </defs>
  <rect width="1400" height="800" fill="url(#sky)"/>
  <circle cx="1130" cy="150" r="68" fill="#ffd86d"/>
  <rect x="110" y="140" width="1180" height="430" rx="32" fill="#fff7ef" stroke="#dfc9ad" stroke-width="8"/>
  <path d="M0 575 C180 545 330 615 480 589 C640 560 740 520 880 548 C1020 577 1140 625 1400 560 L1400 800 L0 800 Z" fill="url(#floor)"/>
  <rect x="180" y="240" width="320" height="220" rx="26" fill="url(#counter)" stroke="#b99369" stroke-width="6"/>
  <rect x="530" y="220" width="190" height="240" rx="22" fill="#d5e9f0" stroke="#91adbb" stroke-width="6"/>
  <rect x="760" y="220" width="190" height="240" rx="22" fill="#e8efcf" stroke="#aebd87" stroke-width="6"/>
  <rect x="990" y="220" width="200" height="240" rx="22" fill="#f2dfc4" stroke="#c9ab81" stroke-width="6"/>
  <rect x="250" y="485" width="560" height="62" rx="22" fill="#8a6a54"/>
  <rect x="250" y="455" width="130" height="90" rx="20" fill="#f4d7b0"/>
  <rect x="420" y="455" width="130" height="90" rx="20" fill="#f4d7b0"/>
  <rect x="590" y="455" width="130" height="90" rx="20" fill="#f4d7b0"/>
  <circle cx="340" cy="390" r="52" fill="#fff" stroke="#c39d77" stroke-width="8"/>
  <path d="M340 354 C382 354 382 426 340 426" fill="none" stroke="#c39d77" stroke-width="14" stroke-linecap="round"/>
  <path d="M394 374 C420 374 420 406 394 406" fill="none" stroke="#c39d77" stroke-width="12" stroke-linecap="round"/>
  <rect x="570" y="286" width="120" height="26" rx="13" fill="#b07c53"/>
  <rect x="570" y="326" width="120" height="26" rx="13" fill="#b07c53"/>
  <rect x="570" y="366" width="120" height="26" rx="13" fill="#b07c53"/>
  <circle cx="835" cy="355" r="38" fill="#fff" stroke="#c39d77" stroke-width="8"/>
  <rect x="795" y="392" width="80" height="18" rx="9" fill="#7d5a47"/>
  <rect x="1010" y="290" width="148" height="168" rx="20" fill="#f7ead6" stroke="#c3a67f" stroke-width="6"/>
  <circle cx="1075" cy="360" r="28" fill="#d8b18a"/>
  <rect x="1060" y="388" width="30" height="48" rx="15" fill="#9c7d5a"/>
  <g opacity="0.9">
    <rect x="1210" y="468" width="64" height="100" rx="18" fill="#7e9c72"/>
    <rect x="1162" y="500" width="34" height="68" rx="14" fill="#7e9c72"/>
    <rect x="1088" y="498" width="34" height="70" rx="14" fill="#7e9c72"/>
  </g>
</svg>