<svg xmlns="http://www.w3.org/2000/svg" viewBox="0 0 1400 800" role="img" aria-labelledby="title desc">
  <title id="title">Editorial illustration of a school-holiday camp</title>
  <desc id="desc">Children moving between crafts, games, and sports in a bright camp hall with warm family-friendly colours.</desc>
  <defs>
    <linearGradient id="sky" x1="0" y1="0" x2="0" y2="1">
      <stop offset="0%" stop-color="#f7ecd4"/>
      <stop offset="100%" stop-color="#f2cfab"/>
    </linearGradient>
    <linearGradient id="floor" x1="0" y1="0" x2="0" y2="1">
      <stop offset="0%" stop-color="#d8e8d2"/>
      <stop offset="100%" stop-color="#a9c59e"/>
    </linearGradient>
    <linearGradient id="wall" x1="0" y1="0" x2="1" y2="1">
      <stop offset="0%" stop-color="#f9f3ea"/>
      <stop offset="100%" stop-color="#ead7be"/>
    </linearGradient>
  </defs>
  <rect width="1400" height="800" fill="url(#sky)"/>
  <circle cx="1120" cy="155" r="70" fill="#ffd86d"/>
  <path d="M0 560 C180 520 300 620 420 590 C560 556 640 500 780 540 C920 580 1040 620 1200 585 C1290 565 1350 548 1400 555 L1400 800 L0 800 Z" fill="url(#floor)"/>
  <rect x="110" y="170" width="1180" height="420" rx="28" fill="url(#wall)" stroke="#d1b993" stroke-width="8"/>
  <path d="M150 230 H1250" stroke="#d8c2a4" stroke-width="10" stroke-linecap="round"/>
  <rect x="220" y="260" width="230" height="120" rx="18" fill="#d8ecf6" stroke="#8fb3c6" stroke-width="6"/>
  <rect x="485" y="260" width="230" height="120" rx="18" fill="#f8dfd2" stroke="#c79a86" stroke-width="6"/>
  <rect x="750" y="260" width="230" height="120" rx="18" fill="#e5f0cb" stroke="#a7c084" stroke-width="6"/>
  <rect x="1015" y="260" width="230" height="120" rx="18" fill="#f3e8cb" stroke="#c3aa7d" stroke-width="6"/>
  <g>
    <circle cx="345" cy="470" r="48" fill="#f2bc7f"/>
    <circle cx="345" cy="420" r="42" fill="#f4d4b3"/>
    <rect x="317" y="510" width="56" height="126" rx="28" fill="#5b86ad"/>
    <path d="M290 540 Q345 510 400 540" stroke="#5b86ad" stroke-width="18" fill="none" stroke-linecap="round"/>
    <circle cx="306" cy="417" r="6" fill="#594337"/><circle cx="370" cy="417" r="6" fill="#594337"/>
    <path d="M330 438 Q345 447 360 438" stroke="#594337" stroke-width="4" fill="none" stroke-linecap="round"/>
  </g>
  <g>
    <circle cx="700" cy="470" r="48" fill="#e9b57e"/>
    <circle cx="700" cy="420" r="42" fill="#f5d3b1"/>
    <rect x="672" y="510" width="56" height="126" rx="28" fill="#d9826d"/>
    <path d="M645 540 Q700 500 755 540" stroke="#d9826d" stroke-width="18" fill="none" stroke-linecap="round"/>
    <circle cx="661" cy="417" r="6" fill="#594337"/><circle cx="725" cy="417" r="6" fill="#594337"/>
    <path d="M685 438 Q700 447 715 438" stroke="#594337" stroke-width="4" fill="none" stroke-linecap="round"/>
  </g>
  <g>
    <circle cx="1050" cy="470" r="48" fill="#f0c29f"/>
    <circle cx="1050" cy="420" r="42" fill="#f6ddbf"/>
    <rect x="1022" y="510" width="56" height="126" rx="28" fill="#6fa479"/>
    <path d="M995 540 Q1050 500 1105 540" stroke="#6fa479" stroke-width="18" fill="none" stroke-linecap="round"/>
    <circle cx="1011" cy="417" r="6" fill="#594337"/><circle cx="1075" cy="417" r="6" fill="#594337"/>
    <path d="M1035 438 Q1050 447 1065 438" stroke="#594337" stroke-width="4" fill="none" stroke-linecap="round"/>
  </g>
  <g opacity="0.95">
    <rect x="515" y="635" width="360" height="18" rx="9" fill="#8b6b50"/>
    <rect x="560" y="590" width="100" height="50" rx="14" fill="#f5c64d"/>
    <rect x="678" y="590" width="100" height="50" rx="14" fill="#73b7d6"/>
  </g>
</svg>