<svg xmlns="http://www.w3.org/2000/svg" viewBox="0 0 1400 800" role="img" aria-labelledby="title desc">
  <title id="title">Editorial illustration of a small theatre</title>
  <desc id="desc">A warm theatre stage with curtains, spotlights, and a family audience.</desc>
  <defs>
    <linearGradient id="sky" x1="0" y1="0" x2="0" y2="1">
      <stop offset="0%" stop-color="#f8e9d3"/>
      <stop offset="100%" stop-color="#efc99a"/>
    </linearGradient>
  </defs>
  <rect width="1400" height="800" fill="url(#sky)"/>
  <circle cx="1120" cy="150" r="68" fill="#ffd86d"/>
  <rect x="120" y="120" width="1160" height="470" rx="36" fill="#2e2740" stroke="#201937" stroke-width="8"/>
  <rect x="190" y="180" width="1020" height="350" rx="28" fill="#403458"/>
  <path d="M260 190 C360 290 420 320 510 340 C620 366 760 366 880 340 C980 320 1040 290 1140 190" fill="#b94159" opacity="0.9"/>
  <path d="M260 540 C360 450 420 420 510 400 C620 374 760 374 880 400 C980 420 1040 450 1140 540" fill="#b94159" opacity="0.9"/>
  <rect x="520" y="260" width="360" height="160" rx="20" fill="#f5d18b"/>
  <circle cx="620" cy="340" r="34" fill="#f4d1af"/>
  <rect x="590" y="374" width="60" height="90" rx="28" fill="#7ca4c6"/>
  <circle cx="760" cy="340" r="34" fill="#f1c89c"/>
  <rect x="730" y="374" width="60" height="90" rx="28" fill="#d47b69"/>
  <path d="M440 660 C570 620 690 620 820 660" fill="none" stroke="#8b6b50" stroke-width="24" stroke-linecap="round"/>
  <circle cx="520" cy="620" r="28" fill="#f4cfaf"/>
  <circle cx="700" cy="620" r="28" fill="#f6d8bb"/>
</svg>